<?xml version="1.0" encoding="utf-8"?>
<!-- Generator: Adobe Illustrator 17.1.0, SVG Export Plug-In . SVG Version: 6.00 Build 0)  -->
<!DOCTYPE svg PUBLIC "-//W3C//DTD SVG 1.1//EN" "http://www.w3.org/Graphics/SVG/1.1/DTD/svg11.dtd">
<svg version="1.1" id="Layer_1" xmlns="http://www.w3.org/2000/svg" xmlns:xlink="http://www.w3.org/1999/xlink" x="0px" y="0px" 
	 viewBox="0 0 64 50" preserveAspectRatio="xMidYMid meet">
<g>
	<path fill="#E6711B" d="M30.2,2.9C16.6,7.3,11.1,13.3,11.1,23c1.9-2.6,4.8-3.9,8.1-3.9c5.8,0,10.1,4.2,10.1,10.9
		c0,7.9-6.5,12.5-13.6,12.5C7.8,42.6,0.9,37.3,0.9,26c0-14.5,10.9-22.9,28.6-25.8L30.2,2.9z M63.2,2.9C49.6,7.3,44.2,13.3,44.2,23
		c1.9-2.6,4.8-3.9,8.1-3.9c5.8,0,10.1,4.2,10.1,10.9c0,7.9-6.5,12.5-13.6,12.5c-7.9,0-14.8-5.3-14.8-16.6
		c0-14.5,10.9-22.9,28.6-25.8L63.2,2.9z"/>
</g>
<g>
</g>
<g>
</g>
<g>
</g>
<g>
</g>
<g>
</g>
<g>
</g>
<g>
</g>
<g>
</g>
<g>
</g>
<g>
</g>
<g>
</g>
<g>
</g>
<g>
</g>
<g>
</g>
<g>
</g>
<g>
</g>
</svg>
